<?xml version="1.0" encoding="UTF-8" standalone="no"?>
<!-- Created with Inkscape (http://www.inkscape.org/) -->

<svg
   xmlns:dc="http://purl.org/dc/elements/1.1/"
   xmlns:cc="http://creativecommons.org/ns#"
   xmlns:rdf="http://www.w3.org/1999/02/22-rdf-syntax-ns#"
   xmlns:svg="http://www.w3.org/2000/svg"
   xmlns="http://www.w3.org/2000/svg"
   xmlns:xlink="http://www.w3.org/1999/xlink"
   xmlns:sodipodi="http://sodipodi.sourceforge.net/DTD/sodipodi-0.dtd"
   xmlns:inkscape="http://www.inkscape.org/namespaces/inkscape"
   width="50"
   height="50"
   viewBox="0 0 50.000001 50.000001"
   id="svg5342"
   version="1.1"
   inkscape:version="0.91 r13725"
   sodipodi:docname="ufo_uniblue_pink_50px.svg">
  <defs
     id="defs5344">
    <radialGradient
       id="q"
       cx="-69.827003"
       cy="531.58002"
       r="19.268999"
       gradientTransform="matrix(1,0,0,0.6055,0,209.71)"
       gradientUnits="userSpaceOnUse"
       xlink:href="#j" />
    <linearGradient
       id="j">
      <stop
         stop-color="#555753"
         offset="0"
         id="stop25" />
      <stop
         stop-color="#555753"
         stop-opacity="0"
         offset="1"
         id="stop27" />
    </linearGradient>
    <radialGradient
       id="k"
       cx="-80.336998"
       cy="531.58002"
       r="19.268999"
       gradientTransform="matrix(1,0,0,0.6055,0,209.71)"
       gradientUnits="userSpaceOnUse"
       xlink:href="#j" />
    <radialGradient
       inkscape:collect="always"
       xlink:href="#j"
       id="radialGradient4239"
       gradientUnits="userSpaceOnUse"
       gradientTransform="matrix(0.91516883,0,0,0.54106792,12.680649,199.77828)"
       cx="-80.336998"
       cy="531.58002"
       r="19.268999" />
    <linearGradient
       id="l"
       x1="125.84352"
       x2="135.49303"
       y1="5.8058491"
       y2="64.902756"
       gradientTransform="matrix(1.3520885,0,0,0.6048306,12.680649,12.383809)"
       gradientUnits="userSpaceOnUse">
      <stop
         stop-color="#fff"
         offset="0"
         id="stop14" />
      <stop
         stop-color="#fff"
         stop-opacity="0"
         offset="1"
         id="stop16" />
    </linearGradient>
    <linearGradient
       id="m"
       x1="20.182575"
       x2="82.680054"
       y1="95.609474"
       y2="145.69424"
       gradientTransform="matrix(1.3096053,0,0,0.62445109,12.680649,12.383809)"
       gradientUnits="userSpaceOnUse">
      <stop
         stop-color="#fcfcfb"
         offset="0"
         id="stop19" />
      <stop
         stop-color="#fcfcfb"
         stop-opacity="0"
         offset="1"
         id="stop21" />
    </linearGradient>
    <linearGradient
       id="n"
       x1="127.35591"
       x2="129.97147"
       y1="172.57899"
       y2="196.0887"
       xlink:href="#a"
       gradientTransform="matrix(1.2948054,0,0,0.63158874,12.680649,12.383809)"
       gradientUnits="userSpaceOnUse" />
    <linearGradient
       id="a">
      <stop
         stop-color="#eeeeec"
         offset="0"
         id="stop9" />
      <stop
         stop-color="#eeeeec"
         stop-opacity="0"
         offset="1"
         id="stop11" />
    </linearGradient>
    <linearGradient
       id="o"
       x1="44.671474"
       x2="44.974678"
       y1="144.7112"
       y2="165.64249"
       xlink:href="#a"
       gradientTransform="matrix(1.3201007,0,0,0.61948641,12.680649,12.383809)"
       gradientUnits="userSpaceOnUse" />
    <linearGradient
       id="p"
       x1="225.20226"
       x2="224.89903"
       y1="146.76009"
       y2="167.6899"
       xlink:href="#a"
       gradientTransform="matrix(1.3201054,0,0,0.61948423,12.680649,12.383809)"
       gradientUnits="userSpaceOnUse" />
  </defs>
  <sodipodi:namedview
     id="base"
     pagecolor="#ffffff"
     bordercolor="#666666"
     borderopacity="1.0"
     inkscape:pageopacity="0.0"
     inkscape:pageshadow="2"
     inkscape:zoom="11.2"
     inkscape:cx="25.619279"
     inkscape:cy="33.940039"
     inkscape:document-units="px"
     inkscape:current-layer="layer1"
     showgrid="false"
     units="px"
     inkscape:window-width="1600"
     inkscape:window-height="1122"
     inkscape:window-x="0"
     inkscape:window-y="0"
     inkscape:window-maximized="1" />
  <metadata
     id="metadata5347">
    <rdf:RDF>
      <cc:Work
         rdf:about="">
        <dc:format>image/svg+xml</dc:format>
        <dc:type
           rdf:resource="http://purl.org/dc/dcmitype/StillImage" />
        <dc:title></dc:title>
      </cc:Work>
    </rdf:RDF>
  </metadata>
  <g
     inkscape:label="Ebene 1"
     inkscape:groupmode="layer"
     id="layer1"
     transform="translate(0,-1002.3622)">
    <g
       transform="matrix(0.14320292,0,0,0.14320292,-1.5436021,1011.3342)"
       id="g4385"
       inkscape:export-xdpi="2.1702693"
       inkscape:export-ydpi="2.1702693">
      <path
         d="m 262.74138,142.60648 c 0.007,21.464 -34.03787,38.86575 -76.0368,38.86575 -41.99893,0 -76.04413,-17.40175 -76.0368,-38.86575 -0.007,-21.464 34.03787,-38.86574 76.0368,-38.86574 41.99893,0 76.04412,17.40174 76.0368,38.86574 z"
         id="path33"
         inkscape:connector-curvature="0"
         style="fill:#292950;fill-opacity:1;stroke-width:0.5;stroke-linecap:round;stroke-linejoin:bevel" />
      <path
         style="fill:#004a99;fill-opacity:1;stroke-width:2;stroke-linecap:round;stroke-linejoin:bevel"
         inkscape:connector-curvature="0"
         id="path37"
         d="m 186.81897,58.294606 c -95.58938,0 -148.321408,27.361684 -172.500169,49.141124 50.742451,35.70422 109.582319,47.8615 172.500169,47.35394 62.58474,0.33248 116.09832,-16.39467 171.53925,-46.90715 C 334.17946,86.103978 282.40561,58.294606 186.81897,58.294606 Z" />
      <path
         d="m 13.595818,107.48845 c 51.782083,33.63914 109.179642,49.02674 171.768042,48.69432 0.0147,-1e-4 0.0293,1.1e-4 0.044,0 62.58473,0.33248 117.69986,-17.73505 173.14079,-48.24753 -43.37992,9.46847 -116.72064,35.77304 -168.21719,32.99576 -1.67265,0 -3.32224,-0.0101 -4.97202,-0.043 -1.63531,0.0323 -3.27035,0.043 -4.928,0.043 -51.49563,2.77754 -123.456277,-23.97319 -166.844431,-33.44255 z"
         id="path41"
         inkscape:connector-curvature="0"
         style="fill:#003374;fill-opacity:1;stroke-width:2;stroke-linecap:round;stroke-linejoin:bevel" />
      <path
         d="m 266.81388,81.641397 c 0,11.365553 -35.02351,20.579343 -78.2268,20.579343 -43.20329,0 -78.2268,-9.21379 -78.2268,-20.579343 -3e-5,-11.365554 35.02351,-20.579347 78.2268,-20.579347 43.20329,0 78.2268,9.213793 78.2268,20.579347 z"
         id="path43"
         inkscape:connector-curvature="0"
         style="fill:#d3d7cf;fill-opacity:0.98000004;stroke-width:2;stroke-linecap:round;stroke-linejoin:bevel" />
      <path
         d="m 188.5761,84.509816 c -27.37179,0 -49.59209,5.827449 -49.76414,13.017799 13.52437,2.936605 30.87231,4.683035 49.76414,4.682945 18.91196,0 36.27821,-1.74071 49.80806,-4.682945 C 238.21352,90.336818 215.9488,84.509816 188.5761,84.509816 Z"
         id="path45"
         inkscape:connector-curvature="0"
         style="fill:#555753;fill-opacity:0.98000004;stroke-width:2;stroke-linecap:round;stroke-linejoin:bevel" />
      <path
         d="m 267.06098,71.300789 c 0,33.508681 -31.73074,35.843631 -78.93789,36.422671 -51.63566,0.6246 -80.08093,-5.24938 -77.51572,-36.422671 2.74011,-33.299581 35.04548,-60.704157 78.22681,-60.704157 43.18132,0 78.2268,27.195476 78.2268,60.704157 z"
         id="path47"
         inkscape:connector-curvature="0"
         style="opacity:0.73900003;fill:#eeeeec;fill-opacity:0.98000004;stroke-width:2;stroke-linecap:round;stroke-linejoin:bevel" />
      <g
         style="stroke-linecap:round;stroke-linejoin:bevel"
         transform="matrix(0.91516883,0,0,0.89358864,12.680649,12.383809)"
         id="g49">
        <g
           style="stroke-width:4"
           id="g51">
          <path
             style="fill:#4d9a06;fill-opacity:0.98000004"
             inkscape:connector-curvature="0"
             id="path53"
             d="m 192.72,53.792 c -16.186,0 -29.344,13.38 -29.344,29.875 0,5.5286 1.4907,10.713 4.0625,15.156 8.5723,0.78448 17.737,1.2188 27.281,1.2188 8.0018,0 15.723,-0.31641 23.062,-0.875 2.6948,-4.5181 4.25,-9.83 4.25,-15.5 0,-16.495 -13.126,-29.875 -29.312,-29.875 z" />
          <path
             inkscape:connector-curvature="0"
             style="fill:url(#q)"
             id="path55"
             d="m 206.95,67.76 c 0.002,5.0906 -6.8129,9.2179 -15.22,9.2179 -8.4072,0 -15.222,-4.1273 -15.22,-9.2179 -0.002,-5.0906 6.8129,-9.2179 15.22,-9.2179 8.4072,0 15.222,4.1273 15.22,9.2179 z" />
        </g>
        <g
           style="stroke-width:2"
           id="g57">
          <path
             style="fill:#4e9a06"
             inkscape:connector-curvature="0"
             id="path59"
             d="m 158.96,11.651 c -2.4052,0 -4.3444,2.1714 -4.3444,4.8381 0,2.6667 1.9391,4.8134 4.3444,4.8134 2.4053,0 4.3691,-2.1467 4.3691,-4.8134 0,-0.14173 -0.0139,-0.28098 -0.0247,-0.41962 1.9992,-0.42837 4.6654,-0.71921 7.3065,-0.09875 2.6047,0.61193 5.1485,2.0083 7.2324,5.1343 1.7513,2.6269 3.1552,6.5571 3.7273,12.268 -4.545,3.7046 -7.5039,9.6608 -7.5039,16.39 0,11.231 8.2346,20.34 18.365,20.34 10.1304,0 18.34,-9.1082 18.34,-20.34 0,-7.7084 -3.8728,-14.419 -9.5774,-17.871 1.7192,-5.6072 3.9214,-9.2516 6.1957,-11.503 2.67,-2.6429 5.4465,-3.5036 8.121,-3.5792 2.7161,-0.07675 5.2607,0.75674 7.1337,1.5798 -0.0378,0.13196 -0.0706,0.2579 -0.0987,0.39493 -0.53632,2.6122 0.95154,5.1195 3.3077,5.6033 2.3561,0.48376 4.6966,-1.2385 5.233,-3.8507 0.53635,-2.6122 -0.95154,-5.1195 -3.3076,-5.6032 -1.1781,-0.24188 -2.3592,0.06726 -3.3077,0.7652 -1.1911,-0.56049 -2.6846,-1.1293 -4.3691,-1.5304 -1.4433,-0.34365 -3.0219,-0.56549 -4.6899,-0.51834 -3.3361,0.09427 -7.0425,1.2993 -10.268,4.4925 -2.6794,2.6522 -5.0279,6.6342 -6.8375,12.367 -1.8485,-0.69452 -3.8155,-1.0861 -5.8748,-1.0861 -2.8183,0 -5.512,0.68973 -7.8989,1.95 -0.70291,-5.2362 -2.1307,-9.1449 -4.0482,-12.021 -2.5178,-3.7768 -5.9088,-5.7039 -9.1578,-6.4672 -1.6244,-0.38162 -3.207,-0.49066 -4.69,-0.4443 -1.7403,0.05444 -3.3079,0.33017 -4.5912,0.64178 -0.78967,-0.8829 -1.8762,-1.4317 -3.0855,-1.4317 z" />
          <g
             style="fill-opacity:0.98000004"
             id="g61">
            <path
               style="fill:#eeeeec"
               inkscape:connector-curvature="0"
               id="path63"
               d="m 200.3,43.561 c 0,5.0051 -3.6596,9.0625 -8.174,9.0625 -4.5144,0 -8.174,-4.0574 -8.174,-9.0625 0,-5.0051 3.6596,-9.0625 8.174,-9.0625 4.5144,0 8.174,4.0574 8.174,9.0625 z" />
            <path
               style="fill:#2e3436"
               inkscape:connector-curvature="0"
               id="path65"
               d="m 195.3,46.268 c 0,2.7307 -1.6565,4.9444 -3.6998,4.9444 -2.0433,0 -3.6998,-2.2137 -3.6998,-4.9444 0,-2.7307 1.6564,-4.9444 3.6998,-4.9444 2.0433,0 3.6998,2.2137 3.6998,4.9444 z" />
          </g>
        </g>
        <g
           style="stroke-width:4"
           id="g67">
          <path
             style="fill:#ffffff"
             inkscape:connector-curvature="0"
             id="path69"
             d="m 197.36,40.553 c 0,2.803 -0.42654,-3.2442 -5.36,-1.8337 -2.8447,0.81332 -5.36,4.6366 -5.36,1.8337 0,-2.803 2.4012,-5.0778 5.36,-5.0778 2.9587,0 5.36,2.2749 5.36,5.0778 z" />
          <path
             inkscape:connector-curvature="0"
             style="fill:url(#k)"
             id="path71"
             d="m 180.14,74.494 c 9.8e-4,3.5657 -3.4377,6.4566 -7.6799,6.4566 -4.2421,0 -7.6808,-2.891 -7.6799,-6.4566 -9.6e-4,-3.5657 3.4377,-6.4566 7.6799,-6.4566 4.2421,0 7.6808,2.891 7.6799,6.4566 z" />
        </g>
      </g>
      <path
         style="fill:#4c9a06;fill-opacity:0.98000004;fill-rule:evenodd"
         inkscape:connector-curvature="0"
         id="path73"
         d="m 171.39838,79.546825 c 8.84199,-2.340577 -7.58474,-22.275378 -16.80891,-15.777201 -2.77461,20.891209 -9.64771,19.996727 -27.30681,24.661259 8.59545,0.943987 19.17462,3.235059 25.94321,-3.612421 6.65081,-17.623355 9.0588,-5.707619 18.17251,-5.271637 z" />
      <path
         inkscape:connector-curvature="0"
         style="fill:url(#radialGradient4239);stroke-width:4;stroke-linecap:round;stroke-linejoin:bevel"
         id="path75"
         d="m 200.89427,77.703352 c -8.8e-4,3.186269 3.14607,5.769634 7.0284,5.769634 3.88224,0 7.02923,-2.583365 7.02832,-5.769634 8.9e-4,-3.186269 -3.14608,-5.769545 -7.02832,-5.769545 -3.88233,0 -7.02923,2.583365 -7.0284,5.769545 z" />
      <path
         style="fill:#4c9a06;fill-opacity:0.98000004;fill-rule:evenodd"
         inkscape:connector-curvature="0"
         id="path77"
         d="m 207.0259,78.298482 c -8.842,-2.340577 7.58474,-22.275378 16.80891,-15.777201 2.7746,20.891209 9.6477,19.996726 27.3068,24.661259 -8.59545,0.943987 -19.17461,3.235059 -25.9432,-3.612421 -6.6509,-17.623356 -9.0588,-5.707619 -18.17251,-5.271727 z" />
      <path
         style="opacity:0.18300003;fill:#555753;fill-opacity:0.98000004;stroke-width:4;stroke-linecap:round;stroke-linejoin:bevel"
         inkscape:connector-curvature="0"
         id="path79"
         d="m 164.06787,93.955048 c 0.62628,2.052484 1.47196,3.997648 2.54527,5.808327 7.8451,0.701065 16.23235,1.089105 24.96672,1.089105 7.323,0 14.3892,-0.28268 21.10563,-0.78189 1.09582,-1.793879 1.95187,-3.740562 2.60255,-5.780446 -0.85552,-0.02312 -1.68574,-0.08503 -2.51671,-0.195472 -0.032,0.05334 -0.0534,0.114477 -0.0858,0.167547 -6.71706,0.499213 -13.78336,0.781891 -21.10562,0.781891 -8.73456,0 -17.1219,-0.387997 -24.96672,-1.089106 -0.43182,0.02841 -0.84915,0.05585 -1.28691,0.05585 -0.41843,0 -0.84538,-0.02989 -1.25836,-0.05585 z" />
      <path
         inkscape:connector-curvature="0"
         style="opacity:0.73900003;fill:url(#l);stroke-width:2;stroke-linecap:round;stroke-linejoin:bevel"
         id="path81"
         d="m 253.53478,63.40504 c 0,28.163233 -16.46938,-29.883391 -65.57642,-14.450222 -56.96835,17.904836 -66.92172,27.882646 -65.91961,14.450222 2.08923,-28.003281 29.4547,-51.021231 65.74755,-51.021231 36.29286,0 65.74756,22.857104 65.74756,51.021231 z" />
      <path
         style="fill:none;stroke:#000000;stroke-width:0.90431434"
         inkscape:connector-curvature="0"
         id="path83"
         d="M 125.68569,147.3425 Z" />
      <path
         d="m 131.79902,63.94298 c -1.17269,0.194248 -1.63934,1.377377 -6.74937,0.753965 -29.509615,0.429316 -71.150712,19.234496 -99.671033,41.691275 4.134092,0.62961 7.879237,1.30204 11.353584,2.06642 26.697305,-20.120935 63.450489,-36.767598 91.402489,-39.010505 3.22313,-1.003768 6.59681,-1.967414 10.20962,-2.848314 -4.29626,-2.357912 -5.63707,-2.803902 -6.54913,-2.652886 z M 59.672738,117.6137 c 0.08661,0.0555 0.170697,0.11148 0.257391,0.16755 0.01009,-0.009 0.0185,-0.0193 0.0286,-0.0279 -0.09636,-0.044 -0.189485,-0.0963 -0.28599,-0.13962 z"
         id="path87"
         style="fill:url(#m);stroke-width:2;stroke-linecap:round;stroke-linejoin:bevel"
         inkscape:connector-curvature="0" />
      <path
         style="fill:#e22ada;fill-opacity:1;stroke-width:5;stroke-linecap:round;stroke-linejoin:bevel"
         inkscape:connector-curvature="0"
         id="path91"
         d="m 197.69118,125.69978 c 0,3.45462 -7.17035,6.25512 -16.01545,6.25512 -8.84511,0 -16.01546,-2.8005 -16.01546,-6.25512 0,-3.45461 7.17035,-6.25512 16.01546,-6.25512 8.8451,0 16.01545,2.80051 16.01545,6.25512 z" />
      <path
         style="fill:#e22ada;fill-opacity:1;stroke-width:5;stroke-linecap:round;stroke-linejoin:bevel"
         inkscape:connector-curvature="0"
         id="path93"
         d="m 87.351104,110.49091 c -0.793744,2.94848 -7.557098,3.76799 -15.106692,1.83042 -7.549227,-1.93757 -13.025598,-5.89858 -12.232146,-8.84697 0.793735,-2.94849 7.557098,-3.767997 15.106692,-1.83043 7.549227,1.93757 13.025598,5.89858 12.232146,8.84707 z" />
      <path
         inkscape:connector-curvature="0"
         style="fill:url(#n);stroke-width:5;stroke-linecap:round;stroke-linejoin:bevel"
         id="path95"
         d="m 190.35153,124.75258 c 0,2.33575 -9.09175,-6.80378 -10.83377,4.23141 -0.91113,5.77115 -10.83377,-1.89566 -10.83377,-4.23141 0,-2.33566 4.8536,-4.23132 10.83377,-4.23132 5.98035,0 10.83377,1.89566 10.83377,4.23132 z" />
      <path
         inkscape:connector-curvature="0"
         style="fill:url(#o);stroke-width:5;stroke-linecap:round;stroke-linejoin:bevel"
         id="path97"
         d="m 82.274663,107.05953 c -0.404542,1.94695 -6.800345,-7.251923 -10.24074,1.64357 -1.799221,4.6522 -9.179143,-3.46364 -8.774821,-5.41068 0.404559,-1.94695 4.992337,-2.68326 10.240739,-1.64357 5.24831,1.03969 9.179143,3.46372 8.774822,5.41059 z" />
      <path
         style="fill:#e22ada;fill-opacity:1;stroke-width:5;stroke-linecap:round;stroke-linejoin:bevel"
         inkscape:connector-curvature="0"
         id="path99"
         d="m 294.26895,111.75087 c 0.79376,2.94848 7.55709,3.76799 15.10669,1.83042 7.54923,-1.93757 13.0256,-5.89858 12.23214,-8.84697 -0.79373,-2.94849 -7.55709,-3.768 -15.10669,-1.83043 -7.54922,1.93757 -13.0256,5.89858 -12.23214,8.84698 z" />
      <path
         inkscape:connector-curvature="0"
         style="fill:url(#p);stroke-width:5;stroke-linecap:round;stroke-linejoin:bevel"
         id="path101"
         d="m 299.34813,108.32842 c 0.40455,1.94695 6.80035,-7.25201 10.24074,1.64358 1.79913,4.6522 9.17915,-3.46373 8.77492,-5.41059 -0.40458,-1.94695 -4.99234,-2.68336 -10.24074,-1.64367 -5.24831,1.03978 -9.17915,3.46373 -8.77492,5.41068 z" />
      <g
         transform="matrix(0.91516883,0,0,0.89358864,12.680649,12.383809)"
         id="g103"
         style="fill:#2e3436;stroke-linecap:round;stroke-linejoin:bevel">
        <path
           d="m 271.72,151.44 c -18.738,4.2399 -45.906,10.046 -57.719,7.9375 17.5,10 0,26.906 0,26.906 30.013,-4.8216 52.808,-18.278 57.719,-34.844 z"
           id="path105"
           inkscape:connector-curvature="0"
           style="stroke-width:0.5" />
        <path
           d="m 373.54,108.91 c -25.152,5.6226 -47.506,14.243 -82.636,23.121 4.5179,3.2062 -4.0709,9.0195 -1.6663,13.059 28.512,-9.166 56.47,-20.493 84.302,-36.18 z"
           id="path107"
           inkscape:connector-curvature="0"
           style="stroke-width:2" />
      </g>
    </g>
  </g>
</svg>
